<?xml version="1.0" standalone="no"?>
<svg xmlns="http://www.w3.org/2000/svg" width="500" height="500"><defs><clipPath id="clip-path-dot-color"><rect x="19" y="145" width="14" height="14" transform="rotate(0,26,152)"/><rect x="19" y="173" width="14" height="14" transform="rotate(0,26,180)"/><rect x="19" y="187" width="14" height="14" transform="rotate(0,26,194)"/><rect x="19" y="229" width="14" height="14" transform="rotate(0,26,236)"/><rect x="19" y="243" width="14" height="14" transform="rotate(0,26,250)"/><rect x="19" y="271" width="14" height="14" transform="rotate(0,26,278)"/><rect x="19" y="327" width="14" height="14" transform="rotate(0,26,334)"/><rect x="33" y="145" width="14" height="14" transform="rotate(0,40,152)"/><rect x="33" y="159" width="14" height="14" transform="rotate(0,40,166)"/><rect x="33" y="173" width="14" height="14" transform="rotate(0,40,180)"/><rect x="33" y="201" width="14" height="14" transform="rotate(0,40,208)"/><rect x="33" y="257" width="14" height="14" transform="rotate(0,40,264)"/><rect x="33" y="271" width="14" height="14" transform="rotate(0,40,278)"/><rect x="33" y="299" width="14" height="14" transform="rotate(0,40,306)"/><rect x="33" y="313" width="14" height="14" transform="rotate(0,40,320)"/><rect x="33" y="327" width="14" height="14" transform="rotate(0,40,334)"/><rect x="33" y="355" width="14" height="14" transform="rotate(0,40,362)"/><rect x="47" y="145" width="14" height="14" transform="rotate(0,54,152)"/><rect x="47" y="173" width="14" height="14" transform="rotate(0,54,180)"/><rect x="47" y="187" width="14" height="14" transform="rotate(0,54,194)"/><rect x="47" y="201" width="14" height="14" transform="rotate(0,54,208)"/><rect x="47" y="243" width="14" height="14" transform="rotate(0,54,250)"/><rect x="47" y="271" width="14" height="14" transform="rotate(0,54,278)"/><rect x="47" y="327" width="14" height="14" transform="rotate(0,54,334)"/><rect x="47" y="341" width="14" height="14" transform="rotate(0,54,348)"/><rect x="61" y="131" width="14" height="14" transform="rotate(0,68,138)"/><rect x="61" y="173" width="14" height="14" transform="rotate(0,68,180)"/><rect x="61" y="187" width="14" height="14" transform="rotate(0,68,194)"/><rect x="61" y="201" width="14" height="14" transform="rotate(0,68,208)"/><rect x="61" y="229" width="14" height="14" transform="rotate(0,68,236)"/><rect x="61" y="271" width="14" height="14" transform="rotate(0,68,278)"/><rect x="61" y="285" width="14" height="14" transform="rotate(0,68,292)"/><rect x="61" y="299" width="14" height="14" transform="rotate(0,68,306)"/><rect x="61" y="327" width="14" height="14" transform="rotate(0,68,334)"/><rect x="75" y="145" width="14" height="14" transform="rotate(0,82,152)"/><rect x="75" y="159" width="14" height="14" transform="rotate(0,82,166)"/><rect x="75" y="229" width="14" height="14" transform="rotate(0,82,236)"/><rect x="75" y="243" width="14" height="14" transform="rotate(0,82,250)"/><rect x="75" y="271" width="14" height="14" transform="rotate(0,82,278)"/><rect x="75" y="285" width="14" height="14" transform="rotate(0,82,292)"/><rect x="75" y="299" width="14" height="14" transform="rotate(0,82,306)"/><rect x="75" y="313" width="14" height="14" transform="rotate(0,82,320)"/><rect x="75" y="327" width="14" height="14" transform="rotate(0,82,334)"/><rect x="75" y="341" width="14" height="14" transform="rotate(0,82,348)"/><rect x="75" y="355" width="14" height="14" transform="rotate(0,82,362)"/><rect x="89" y="131" width="14" height="14" transform="rotate(0,96,138)"/><rect x="89" y="201" width="14" height="14" transform="rotate(0,96,208)"/><rect x="89" y="215" width="14" height="14" transform="rotate(0,96,222)"/><rect x="89" y="243" width="14" height="14" transform="rotate(0,96,250)"/><rect x="89" y="271" width="14" height="14" transform="rotate(0,96,278)"/><rect x="89" y="299" width="14" height="14" transform="rotate(0,96,306)"/><rect x="89" y="313" width="14" height="14" transform="rotate(0,96,320)"/><rect x="89" y="355" width="14" height="14" transform="rotate(0,96,362)"/><rect x="103" y="131" width="14" height="14" transform="rotate(0,110,138)"/><rect x="103" y="159" width="14" height="14" transform="rotate(0,110,166)"/><rect x="103" y="187" width="14" height="14" transform="rotate(0,110,194)"/><rect x="103" y="215" width="14" height="14" transform="rotate(0,110,222)"/><rect x="103" y="243" width="14" height="14" transform="rotate(0,110,250)"/><rect x="103" y="271" width="14" height="14" transform="rotate(0,110,278)"/><rect x="103" y="299" width="14" height="14" transform="rotate(0,110,306)"/><rect x="103" y="327" width="14" height="14" transform="rotate(0,110,334)"/><rect x="103" y="355" width="14" height="14" transform="rotate(0,110,362)"/><rect x="117" y="131" width="14" height="14" transform="rotate(0,124,138)"/><rect x="117" y="145" width="14" height="14" transform="rotate(0,124,152)"/><rect x="117" y="173" width="14" height="14" transform="rotate(0,124,180)"/><rect x="117" y="187" width="14" height="14" transform="rotate(0,124,194)"/><rect x="117" y="201" width="14" height="14" transform="rotate(0,124,208)"/><rect x="117" y="215" width="14" height="14" transform="rotate(0,124,222)"/><rect x="117" y="243" width="14" height="14" transform="rotate(0,124,250)"/><rect x="117" y="271" width="14" height="14" transform="rotate(0,124,278)"/><rect x="117" y="355" width="14" height="14" transform="rotate(0,124,362)"/><rect x="131" y="33" width="14" height="14" transform="rotate(0,138,40)"/><rect x="131" y="47" width="14" height="14" transform="rotate(0,138,54)"/><rect x="131" y="103" width="14" height="14" transform="rotate(0,138,110)"/><rect x="131" y="145" width="14" height="14" transform="rotate(0,138,152)"/><rect x="131" y="159" width="14" height="14" transform="rotate(0,138,166)"/><rect x="131" y="215" width="14" height="14" transform="rotate(0,138,222)"/><rect x="131" y="229" width="14" height="14" transform="rotate(0,138,236)"/><rect x="131" y="285" width="14" height="14" transform="rotate(0,138,292)"/><rect x="131" y="299" width="14" height="14" transform="rotate(0,138,306)"/><rect x="131" y="327" width="14" height="14" transform="rotate(0,138,334)"/><rect x="131" y="341" width="14" height="14" transform="rotate(0,138,348)"/><rect x="131" y="383" width="14" height="14" transform="rotate(0,138,390)"/><rect x="131" y="397" width="14" height="14" transform="rotate(0,138,404)"/><rect x="131" y="425" width="14" height="14" transform="rotate(0,138,432)"/><rect x="145" y="33" width="14" height="14" transform="rotate(0,152,40)"/><rect x="145" y="47" width="14" height="14" transform="rotate(0,152,54)"/><rect x="145" y="61" width="14" height="14" transform="rotate(0,152,68)"/><rect x="145" y="75" width="14" height="14" transform="rotate(0,152,82)"/><rect x="145" y="159" width="14" height="14" transform="rotate(0,152,166)"/><rect x="145" y="215" width="14" height="14" transform="rotate(0,152,222)"/><rect x="145" y="285" width="14" height="14" transform="rotate(0,152,292)"/><rect x="145" y="299" width="14" height="14" transform="rotate(0,152,306)"/><rect x="145" y="341" width="14" height="14" transform="rotate(0,152,348)"/><rect x="145" y="355" width="14" height="14" transform="rotate(0,152,362)"/><rect x="145" y="383" width="14" height="14" transform="rotate(0,152,390)"/><rect x="145" y="425" width="14" height="14" transform="rotate(0,152,432)"/><rect x="145" y="453" width="14" height="14" transform="rotate(0,152,460)"/><rect x="145" y="467" width="14" height="14" transform="rotate(0,152,474)"/><rect x="159" y="47" width="14" height="14" transform="rotate(0,166,54)"/><rect x="159" y="61" width="14" height="14" transform="rotate(0,166,68)"/><rect x="159" y="75" width="14" height="14" transform="rotate(0,166,82)"/><rect x="159" y="89" width="14" height="14" transform="rotate(0,166,96)"/><rect x="159" y="103" width="14" height="14" transform="rotate(0,166,110)"/><rect x="159" y="131" width="14" height="14" transform="rotate(0,166,138)"/><rect x="159" y="173" width="14" height="14" transform="rotate(0,166,180)"/><rect x="159" y="187" width="14" height="14" transform="rotate(0,166,194)"/><rect x="159" y="215" width="14" height="14" transform="rotate(0,166,222)"/><rect x="159" y="257" width="14" height="14" transform="rotate(0,166,264)"/><rect x="159" y="271" width="14" height="14" transform="rotate(0,166,278)"/><rect x="159" y="285" width="14" height="14" transform="rotate(0,166,292)"/><rect x="159" y="313" width="14" height="14" transform="rotate(0,166,320)"/><rect x="159" y="327" width="14" height="14" transform="rotate(0,166,334)"/><rect x="159" y="341" width="14" height="14" transform="rotate(0,166,348)"/><rect x="159" y="355" width="14" height="14" transform="rotate(0,166,362)"/><rect x="159" y="425" width="14" height="14" transform="rotate(0,166,432)"/><rect x="159" y="439" width="14" height="14" transform="rotate(0,166,446)"/><rect x="159" y="467" width="14" height="14" transform="rotate(0,166,474)"/><rect x="173" y="47" width="14" height="14" transform="rotate(0,180,54)"/><rect x="173" y="75" width="14" height="14" transform="rotate(0,180,82)"/><rect x="173" y="89" width="14" height="14" transform="rotate(0,180,96)"/><rect x="173" y="131" width="14" height="14" transform="rotate(0,180,138)"/><rect x="173" y="145" width="14" height="14" transform="rotate(0,180,152)"/><rect x="173" y="229" width="14" height="14" transform="rotate(0,180,236)"/><rect x="173" y="243" width="14" height="14" transform="rotate(0,180,250)"/><rect x="173" y="271" width="14" height="14" transform="rotate(0,180,278)"/><rect x="173" y="285" width="14" height="14" transform="rotate(0,180,292)"/><rect x="173" y="327" width="14" height="14" transform="rotate(0,180,334)"/><rect x="173" y="369" width="14" height="14" transform="rotate(0,180,376)"/><rect x="173" y="383" width="14" height="14" transform="rotate(0,180,390)"/><rect x="173" y="397" width="14" height="14" transform="rotate(0,180,404)"/><rect x="173" y="411" width="14" height="14" transform="rotate(0,180,418)"/><rect x="173" y="425" width="14" height="14" transform="rotate(0,180,432)"/><rect x="187" y="19" width="14" height="14" transform="rotate(0,194,26)"/><rect x="187" y="75" width="14" height="14" transform="rotate(0,194,82)"/><rect x="187" y="89" width="14" height="14" transform="rotate(0,194,96)"/><rect x="187" y="103" width="14" height="14" transform="rotate(0,194,110)"/><rect x="187" y="159" width="14" height="14" transform="rotate(0,194,166)"/><rect x="187" y="173" width="14" height="14" transform="rotate(0,194,180)"/><rect x="187" y="187" width="14" height="14" transform="rotate(0,194,194)"/><rect x="187" y="215" width="14" height="14" transform="rotate(0,194,222)"/><rect x="187" y="257" width="14" height="14" transform="rotate(0,194,264)"/><rect x="187" y="271" width="14" height="14" transform="rotate(0,194,278)"/><rect x="187" y="285" width="14" height="14" transform="rotate(0,194,292)"/><rect x="187" y="299" width="14" height="14" transform="rotate(0,194,306)"/><rect x="187" y="313" width="14" height="14" transform="rotate(0,194,320)"/><rect x="187" y="327" width="14" height="14" transform="rotate(0,194,334)"/><rect x="187" y="355" width="14" height="14" transform="rotate(0,194,362)"/><rect x="187" y="369" width="14" height="14" transform="rotate(0,194,376)"/><rect x="187" y="383" width="14" height="14" transform="rotate(0,194,390)"/><rect x="187" y="397" width="14" height="14" transform="rotate(0,194,404)"/><rect x="187" y="467" width="14" height="14" transform="rotate(0,194,474)"/><rect x="201" y="19" width="14" height="14" transform="rotate(0,208,26)"/><rect x="201" y="75" width="14" height="14" transform="rotate(0,208,82)"/><rect x="201" y="89" width="14" height="14" transform="rotate(0,208,96)"/><rect x="201" y="159" width="14" height="14" transform="rotate(0,208,166)"/><rect x="201" y="173" width="14" height="14" transform="rotate(0,208,180)"/><rect x="201" y="187" width="14" height="14" transform="rotate(0,208,194)"/><rect x="201" y="201" width="14" height="14" transform="rotate(0,208,208)"/><rect x="201" y="229" width="14" height="14" transform="rotate(0,208,236)"/><rect x="201" y="243" width="14" height="14" transform="rotate(0,208,250)"/><rect x="201" y="257" width="14" height="14" transform="rotate(0,208,264)"/><rect x="201" y="271" width="14" height="14" transform="rotate(0,208,278)"/><rect x="201" y="299" width="14" height="14" transform="rotate(0,208,306)"/><rect x="201" y="313" width="14" height="14" transform="rotate(0,208,320)"/><rect x="201" y="327" width="14" height="14" transform="rotate(0,208,334)"/><rect x="201" y="341" width="14" height="14" transform="rotate(0,208,348)"/><rect x="201" y="355" width="14" height="14" transform="rotate(0,208,362)"/><rect x="201" y="383" width="14" height="14" transform="rotate(0,208,390)"/><rect x="201" y="397" width="14" height="14" transform="rotate(0,208,404)"/><rect x="201" y="425" width="14" height="14" transform="rotate(0,208,432)"/><rect x="201" y="453" width="14" height="14" transform="rotate(0,208,460)"/><rect x="201" y="467" width="14" height="14" transform="rotate(0,208,474)"/><rect x="215" y="33" width="14" height="14" transform="rotate(0,222,40)"/><rect x="215" y="61" width="14" height="14" transform="rotate(0,222,68)"/><rect x="215" y="75" width="14" height="14" transform="rotate(0,222,82)"/><rect x="215" y="103" width="14" height="14" transform="rotate(0,222,110)"/><rect x="215" y="131" width="14" height="14" transform="rotate(0,222,138)"/><rect x="215" y="159" width="14" height="14" transform="rotate(0,222,166)"/><rect x="215" y="201" width="14" height="14" transform="rotate(0,222,208)"/><rect x="215" y="229" width="14" height="14" transform="rotate(0,222,236)"/><rect x="215" y="243" width="14" height="14" transform="rotate(0,222,250)"/><rect x="215" y="257" width="14" height="14" transform="rotate(0,222,264)"/><rect x="215" y="271" width="14" height="14" transform="rotate(0,222,278)"/><rect x="215" y="299" width="14" height="14" transform="rotate(0,222,306)"/><rect x="215" y="341" width="14" height="14" transform="rotate(0,222,348)"/><rect x="215" y="355" width="14" height="14" transform="rotate(0,222,362)"/><rect x="215" y="397" width="14" height="14" transform="rotate(0,222,404)"/><rect x="215" y="411" width="14" height="14" transform="rotate(0,222,418)"/><rect x="215" y="425" width="14" height="14" transform="rotate(0,222,432)"/><rect x="215" y="439" width="14" height="14" transform="rotate(0,222,446)"/><rect x="215" y="467" width="14" height="14" transform="rotate(0,222,474)"/><rect x="229" y="19" width="14" height="14" transform="rotate(0,236,26)"/><rect x="229" y="33" width="14" height="14" transform="rotate(0,236,40)"/><rect x="229" y="89" width="14" height="14" transform="rotate(0,236,96)"/><rect x="229" y="131" width="14" height="14" transform="rotate(0,236,138)"/><rect x="229" y="173" width="14" height="14" transform="rotate(0,236,180)"/><rect x="229" y="215" width="14" height="14" transform="rotate(0,236,222)"/><rect x="229" y="257" width="14" height="14" transform="rotate(0,236,264)"/><rect x="229" y="285" width="14" height="14" transform="rotate(0,236,292)"/><rect x="229" y="299" width="14" height="14" transform="rotate(0,236,306)"/><rect x="229" y="355" width="14" height="14" transform="rotate(0,236,362)"/><rect x="229" y="369" width="14" height="14" transform="rotate(0,236,376)"/><rect x="229" y="383" width="14" height="14" transform="rotate(0,236,390)"/><rect x="229" y="397" width="14" height="14" transform="rotate(0,236,404)"/><rect x="229" y="425" width="14" height="14" transform="rotate(0,236,432)"/><rect x="243" y="47" width="14" height="14" transform="rotate(0,250,54)"/><rect x="243" y="61" width="14" height="14" transform="rotate(0,250,68)"/><rect x="243" y="75" width="14" height="14" transform="rotate(0,250,82)"/><rect x="243" y="103" width="14" height="14" transform="rotate(0,250,110)"/><rect x="243" y="131" width="14" height="14" transform="rotate(0,250,138)"/><rect x="243" y="159" width="14" height="14" transform="rotate(0,250,166)"/><rect x="243" y="215" width="14" height="14" transform="rotate(0,250,222)"/><rect x="243" y="243" width="14" height="14" transform="rotate(0,250,250)"/><rect x="243" y="271" width="14" height="14" transform="rotate(0,250,278)"/><rect x="243" y="299" width="14" height="14" transform="rotate(0,250,306)"/><rect x="243" y="341" width="14" height="14" transform="rotate(0,250,348)"/><rect x="243" y="355" width="14" height="14" transform="rotate(0,250,362)"/><rect x="243" y="383" width="14" height="14" transform="rotate(0,250,390)"/><rect x="243" y="397" width="14" height="14" transform="rotate(0,250,404)"/><rect x="243" y="425" width="14" height="14" transform="rotate(0,250,432)"/><rect x="243" y="453" width="14" height="14" transform="rotate(0,250,460)"/><rect x="257" y="33" width="14" height="14" transform="rotate(0,264,40)"/><rect x="257" y="47" width="14" height="14" transform="rotate(0,264,54)"/><rect x="257" y="117" width="14" height="14" transform="rotate(0,264,124)"/><rect x="257" y="131" width="14" height="14" transform="rotate(0,264,138)"/><rect x="257" y="159" width="14" height="14" transform="rotate(0,264,166)"/><rect x="257" y="187" width="14" height="14" transform="rotate(0,264,194)"/><rect x="257" y="201" width="14" height="14" transform="rotate(0,264,208)"/><rect x="257" y="215" width="14" height="14" transform="rotate(0,264,222)"/><rect x="257" y="229" width="14" height="14" transform="rotate(0,264,236)"/><rect x="257" y="285" width="14" height="14" transform="rotate(0,264,292)"/><rect x="257" y="299" width="14" height="14" transform="rotate(0,264,306)"/><rect x="257" y="313" width="14" height="14" transform="rotate(0,264,320)"/><rect x="257" y="341" width="14" height="14" transform="rotate(0,264,348)"/><rect x="257" y="355" width="14" height="14" transform="rotate(0,264,362)"/><rect x="257" y="383" width="14" height="14" transform="rotate(0,264,390)"/><rect x="257" y="425" width="14" height="14" transform="rotate(0,264,432)"/><rect x="257" y="453" width="14" height="14" transform="rotate(0,264,460)"/><rect x="257" y="467" width="14" height="14" transform="rotate(0,264,474)"/><rect x="271" y="47" width="14" height="14" transform="rotate(0,278,54)"/><rect x="271" y="103" width="14" height="14" transform="rotate(0,278,110)"/><rect x="271" y="117" width="14" height="14" transform="rotate(0,278,124)"/><rect x="271" y="131" width="14" height="14" transform="rotate(0,278,138)"/><rect x="271" y="159" width="14" height="14" transform="rotate(0,278,166)"/><rect x="271" y="173" width="14" height="14" transform="rotate(0,278,180)"/><rect x="271" y="187" width="14" height="14" transform="rotate(0,278,194)"/><rect x="271" y="201" width="14" height="14" transform="rotate(0,278,208)"/><rect x="271" y="215" width="14" height="14" transform="rotate(0,278,222)"/><rect x="271" y="229" width="14" height="14" transform="rotate(0,278,236)"/><rect x="271" y="243" width="14" height="14" transform="rotate(0,278,250)"/><rect x="271" y="257" width="14" height="14" transform="rotate(0,278,264)"/><rect x="271" y="285" width="14" height="14" transform="rotate(0,278,292)"/><rect x="271" y="341" width="14" height="14" transform="rotate(0,278,348)"/><rect x="271" y="355" width="14" height="14" transform="rotate(0,278,362)"/><rect x="271" y="397" width="14" height="14" transform="rotate(0,278,404)"/><rect x="271" y="425" width="14" height="14" transform="rotate(0,278,432)"/><rect x="271" y="439" width="14" height="14" transform="rotate(0,278,446)"/><rect x="271" y="467" width="14" height="14" transform="rotate(0,278,474)"/><rect x="285" y="47" width="14" height="14" transform="rotate(0,292,54)"/><rect x="285" y="75" width="14" height="14" transform="rotate(0,292,82)"/><rect x="285" y="131" width="14" height="14" transform="rotate(0,292,138)"/><rect x="285" y="145" width="14" height="14" transform="rotate(0,292,152)"/><rect x="285" y="159" width="14" height="14" transform="rotate(0,292,166)"/><rect x="285" y="173" width="14" height="14" transform="rotate(0,292,180)"/><rect x="285" y="187" width="14" height="14" transform="rotate(0,292,194)"/><rect x="285" y="201" width="14" height="14" transform="rotate(0,292,208)"/><rect x="285" y="215" width="14" height="14" transform="rotate(0,292,222)"/><rect x="285" y="285" width="14" height="14" transform="rotate(0,292,292)"/><rect x="285" y="299" width="14" height="14" transform="rotate(0,292,306)"/><rect x="285" y="313" width="14" height="14" transform="rotate(0,292,320)"/><rect x="285" y="355" width="14" height="14" transform="rotate(0,292,362)"/><rect x="285" y="369" width="14" height="14" transform="rotate(0,292,376)"/><rect x="285" y="411" width="14" height="14" transform="rotate(0,292,418)"/><rect x="285" y="425" width="14" height="14" transform="rotate(0,292,432)"/><rect x="285" y="453" width="14" height="14" transform="rotate(0,292,460)"/><rect x="299" y="33" width="14" height="14" transform="rotate(0,306,40)"/><rect x="299" y="61" width="14" height="14" transform="rotate(0,306,68)"/><rect x="299" y="103" width="14" height="14" transform="rotate(0,306,110)"/><rect x="299" y="117" width="14" height="14" transform="rotate(0,306,124)"/><rect x="299" y="131" width="14" height="14" transform="rotate(0,306,138)"/><rect x="299" y="145" width="14" height="14" transform="rotate(0,306,152)"/><rect x="299" y="173" width="14" height="14" transform="rotate(0,306,180)"/><rect x="299" y="215" width="14" height="14" transform="rotate(0,306,222)"/><rect x="299" y="229" width="14" height="14" transform="rotate(0,306,236)"/><rect x="299" y="271" width="14" height="14" transform="rotate(0,306,278)"/><rect x="299" y="313" width="14" height="14" transform="rotate(0,306,320)"/><rect x="299" y="341" width="14" height="14" transform="rotate(0,306,348)"/><rect x="299" y="355" width="14" height="14" transform="rotate(0,306,362)"/><rect x="299" y="383" width="14" height="14" transform="rotate(0,306,390)"/><rect x="299" y="453" width="14" height="14" transform="rotate(0,306,460)"/><rect x="313" y="47" width="14" height="14" transform="rotate(0,320,54)"/><rect x="313" y="61" width="14" height="14" transform="rotate(0,320,68)"/><rect x="313" y="117" width="14" height="14" transform="rotate(0,320,124)"/><rect x="313" y="131" width="14" height="14" transform="rotate(0,320,138)"/><rect x="313" y="145" width="14" height="14" transform="rotate(0,320,152)"/><rect x="313" y="173" width="14" height="14" transform="rotate(0,320,180)"/><rect x="313" y="201" width="14" height="14" transform="rotate(0,320,208)"/><rect x="313" y="215" width="14" height="14" transform="rotate(0,320,222)"/><rect x="313" y="229" width="14" height="14" transform="rotate(0,320,236)"/><rect x="313" y="243" width="14" height="14" transform="rotate(0,320,250)"/><rect x="313" y="341" width="14" height="14" transform="rotate(0,320,348)"/><rect x="313" y="355" width="14" height="14" transform="rotate(0,320,362)"/><rect x="313" y="383" width="14" height="14" transform="rotate(0,320,390)"/><rect x="313" y="397" width="14" height="14" transform="rotate(0,320,404)"/><rect x="313" y="425" width="14" height="14" transform="rotate(0,320,432)"/><rect x="313" y="467" width="14" height="14" transform="rotate(0,320,474)"/><rect x="327" y="19" width="14" height="14" transform="rotate(0,334,26)"/><rect x="327" y="33" width="14" height="14" transform="rotate(0,334,40)"/><rect x="327" y="61" width="14" height="14" transform="rotate(0,334,68)"/><rect x="327" y="75" width="14" height="14" transform="rotate(0,334,82)"/><rect x="327" y="103" width="14" height="14" transform="rotate(0,334,110)"/><rect x="327" y="145" width="14" height="14" transform="rotate(0,334,152)"/><rect x="327" y="159" width="14" height="14" transform="rotate(0,334,166)"/><rect x="327" y="243" width="14" height="14" transform="rotate(0,334,250)"/><rect x="327" y="257" width="14" height="14" transform="rotate(0,334,264)"/><rect x="327" y="271" width="14" height="14" transform="rotate(0,334,278)"/><rect x="327" y="285" width="14" height="14" transform="rotate(0,334,292)"/><rect x="327" y="327" width="14" height="14" transform="rotate(0,334,334)"/><rect x="327" y="341" width="14" height="14" transform="rotate(0,334,348)"/><rect x="327" y="383" width="14" height="14" transform="rotate(0,334,390)"/><rect x="327" y="411" width="14" height="14" transform="rotate(0,334,418)"/><rect x="327" y="439" width="14" height="14" transform="rotate(0,334,446)"/><rect x="327" y="467" width="14" height="14" transform="rotate(0,334,474)"/><rect x="341" y="47" width="14" height="14" transform="rotate(0,348,54)"/><rect x="341" y="75" width="14" height="14" transform="rotate(0,348,82)"/><rect x="341" y="131" width="14" height="14" transform="rotate(0,348,138)"/><rect x="341" y="229" width="14" height="14" transform="rotate(0,348,236)"/><rect x="341" y="243" width="14" height="14" transform="rotate(0,348,250)"/><rect x="341" y="271" width="14" height="14" transform="rotate(0,348,278)"/><rect x="341" y="327" width="14" height="14" transform="rotate(0,348,334)"/><rect x="341" y="341" width="14" height="14" transform="rotate(0,348,348)"/><rect x="341" y="355" width="14" height="14" transform="rotate(0,348,362)"/><rect x="341" y="369" width="14" height="14" transform="rotate(0,348,376)"/><rect x="341" y="383" width="14" height="14" transform="rotate(0,348,390)"/><rect x="341" y="397" width="14" height="14" transform="rotate(0,348,404)"/><rect x="341" y="411" width="14" height="14" transform="rotate(0,348,418)"/><rect x="341" y="425" width="14" height="14" transform="rotate(0,348,432)"/><rect x="355" y="19" width="14" height="14" transform="rotate(0,362,26)"/><rect x="355" y="33" width="14" height="14" transform="rotate(0,362,40)"/><rect x="355" y="61" width="14" height="14" transform="rotate(0,362,68)"/><rect x="355" y="75" width="14" height="14" transform="rotate(0,362,82)"/><rect x="355" y="89" width="14" height="14" transform="rotate(0,362,96)"/><rect x="355" y="103" width="14" height="14" transform="rotate(0,362,110)"/><rect x="355" y="117" width="14" height="14" transform="rotate(0,362,124)"/><rect x="355" y="131" width="14" height="14" transform="rotate(0,362,138)"/><rect x="355" y="145" width="14" height="14" transform="rotate(0,362,152)"/><rect x="355" y="159" width="14" height="14" transform="rotate(0,362,166)"/><rect x="355" y="187" width="14" height="14" transform="rotate(0,362,194)"/><rect x="355" y="201" width="14" height="14" transform="rotate(0,362,208)"/><rect x="355" y="229" width="14" height="14" transform="rotate(0,362,236)"/><rect x="355" y="271" width="14" height="14" transform="rotate(0,362,278)"/><rect x="355" y="285" width="14" height="14" transform="rotate(0,362,292)"/><rect x="355" y="299" width="14" height="14" transform="rotate(0,362,306)"/><rect x="355" y="355" width="14" height="14" transform="rotate(0,362,362)"/><rect x="355" y="369" width="14" height="14" transform="rotate(0,362,376)"/><rect x="355" y="383" width="14" height="14" transform="rotate(0,362,390)"/><rect x="355" y="397" width="14" height="14" transform="rotate(0,362,404)"/><rect x="355" y="411" width="14" height="14" transform="rotate(0,362,418)"/><rect x="355" y="425" width="14" height="14" transform="rotate(0,362,432)"/><rect x="355" y="467" width="14" height="14" transform="rotate(0,362,474)"/><rect x="369" y="131" width="14" height="14" transform="rotate(0,376,138)"/><rect x="369" y="145" width="14" height="14" transform="rotate(0,376,152)"/><rect x="369" y="173" width="14" height="14" transform="rotate(0,376,180)"/><rect x="369" y="243" width="14" height="14" transform="rotate(0,376,250)"/><rect x="369" y="271" width="14" height="14" transform="rotate(0,376,278)"/><rect x="369" y="285" width="14" height="14" transform="rotate(0,376,292)"/><rect x="369" y="341" width="14" height="14" transform="rotate(0,376,348)"/><rect x="369" y="355" width="14" height="14" transform="rotate(0,376,362)"/><rect x="369" y="411" width="14" height="14" transform="rotate(0,376,418)"/><rect x="369" y="467" width="14" height="14" transform="rotate(0,376,474)"/><rect x="383" y="145" width="14" height="14" transform="rotate(0,390,152)"/><rect x="383" y="159" width="14" height="14" transform="rotate(0,390,166)"/><rect x="383" y="173" width="14" height="14" transform="rotate(0,390,180)"/><rect x="383" y="187" width="14" height="14" transform="rotate(0,390,194)"/><rect x="383" y="201" width="14" height="14" transform="rotate(0,390,208)"/><rect x="383" y="215" width="14" height="14" transform="rotate(0,390,222)"/><rect x="383" y="229" width="14" height="14" transform="rotate(0,390,236)"/><rect x="383" y="257" width="14" height="14" transform="rotate(0,390,264)"/><rect x="383" y="285" width="14" height="14" transform="rotate(0,390,292)"/><rect x="383" y="313" width="14" height="14" transform="rotate(0,390,320)"/><rect x="383" y="327" width="14" height="14" transform="rotate(0,390,334)"/><rect x="383" y="355" width="14" height="14" transform="rotate(0,390,362)"/><rect x="383" y="383" width="14" height="14" transform="rotate(0,390,390)"/><rect x="383" y="411" width="14" height="14" transform="rotate(0,390,418)"/><rect x="383" y="425" width="14" height="14" transform="rotate(0,390,432)"/><rect x="383" y="439" width="14" height="14" transform="rotate(0,390,446)"/><rect x="383" y="467" width="14" height="14" transform="rotate(0,390,474)"/><rect x="397" y="145" width="14" height="14" transform="rotate(0,404,152)"/><rect x="397" y="159" width="14" height="14" transform="rotate(0,404,166)"/><rect x="397" y="187" width="14" height="14" transform="rotate(0,404,194)"/><rect x="397" y="257" width="14" height="14" transform="rotate(0,404,264)"/><rect x="397" y="271" width="14" height="14" transform="rotate(0,404,278)"/><rect x="397" y="299" width="14" height="14" transform="rotate(0,404,306)"/><rect x="397" y="327" width="14" height="14" transform="rotate(0,404,334)"/><rect x="397" y="341" width="14" height="14" transform="rotate(0,404,348)"/><rect x="397" y="355" width="14" height="14" transform="rotate(0,404,362)"/><rect x="397" y="411" width="14" height="14" transform="rotate(0,404,418)"/><rect x="397" y="425" width="14" height="14" transform="rotate(0,404,432)"/><rect x="397" y="453" width="14" height="14" transform="rotate(0,404,460)"/><rect x="411" y="145" width="14" height="14" transform="rotate(0,418,152)"/><rect x="411" y="159" width="14" height="14" transform="rotate(0,418,166)"/><rect x="411" y="201" width="14" height="14" transform="rotate(0,418,208)"/><rect x="411" y="243" width="14" height="14" transform="rotate(0,418,250)"/><rect x="411" y="299" width="14" height="14" transform="rotate(0,418,306)"/><rect x="411" y="313" width="14" height="14" transform="rotate(0,418,320)"/><rect x="411" y="327" width="14" height="14" transform="rotate(0,418,334)"/><rect x="411" y="341" width="14" height="14" transform="rotate(0,418,348)"/><rect x="411" y="355" width="14" height="14" transform="rotate(0,418,362)"/><rect x="411" y="369" width="14" height="14" transform="rotate(0,418,376)"/><rect x="411" y="383" width="14" height="14" transform="rotate(0,418,390)"/><rect x="411" y="397" width="14" height="14" transform="rotate(0,418,404)"/><rect x="411" y="411" width="14" height="14" transform="rotate(0,418,418)"/><rect x="425" y="145" width="14" height="14" transform="rotate(0,432,152)"/><rect x="425" y="159" width="14" height="14" transform="rotate(0,432,166)"/><rect x="425" y="173" width="14" height="14" transform="rotate(0,432,180)"/><rect x="425" y="187" width="14" height="14" transform="rotate(0,432,194)"/><rect x="425" y="201" width="14" height="14" transform="rotate(0,432,208)"/><rect x="425" y="215" width="14" height="14" transform="rotate(0,432,222)"/><rect x="425" y="229" width="14" height="14" transform="rotate(0,432,236)"/><rect x="425" y="257" width="14" height="14" transform="rotate(0,432,264)"/><rect x="425" y="271" width="14" height="14" transform="rotate(0,432,278)"/><rect x="425" y="299" width="14" height="14" transform="rotate(0,432,306)"/><rect x="425" y="313" width="14" height="14" transform="rotate(0,432,320)"/><rect x="425" y="327" width="14" height="14" transform="rotate(0,432,334)"/><rect x="425" y="341" width="14" height="14" transform="rotate(0,432,348)"/><rect x="425" y="369" width="14" height="14" transform="rotate(0,432,376)"/><rect x="425" y="397" width="14" height="14" transform="rotate(0,432,404)"/><rect x="425" y="411" width="14" height="14" transform="rotate(0,432,418)"/><rect x="425" y="425" width="14" height="14" transform="rotate(0,432,432)"/><rect x="425" y="467" width="14" height="14" transform="rotate(0,432,474)"/><rect x="439" y="131" width="14" height="14" transform="rotate(0,446,138)"/><rect x="439" y="229" width="14" height="14" transform="rotate(0,446,236)"/><rect x="439" y="243" width="14" height="14" transform="rotate(0,446,250)"/><rect x="439" y="299" width="14" height="14" transform="rotate(0,446,306)"/><rect x="439" y="341" width="14" height="14" transform="rotate(0,446,348)"/><rect x="439" y="369" width="14" height="14" transform="rotate(0,446,376)"/><rect x="439" y="397" width="14" height="14" transform="rotate(0,446,404)"/><rect x="439" y="411" width="14" height="14" transform="rotate(0,446,418)"/><rect x="439" y="425" width="14" height="14" transform="rotate(0,446,432)"/><rect x="439" y="439" width="14" height="14" transform="rotate(0,446,446)"/><rect x="439" y="453" width="14" height="14" transform="rotate(0,446,460)"/><rect x="439" y="467" width="14" height="14" transform="rotate(0,446,474)"/><rect x="453" y="131" width="14" height="14" transform="rotate(0,460,138)"/><rect x="453" y="159" width="14" height="14" transform="rotate(0,460,166)"/><rect x="453" y="173" width="14" height="14" transform="rotate(0,460,180)"/><rect x="453" y="201" width="14" height="14" transform="rotate(0,460,208)"/><rect x="453" y="215" width="14" height="14" transform="rotate(0,460,222)"/><rect x="453" y="229" width="14" height="14" transform="rotate(0,460,236)"/><rect x="453" y="243" width="14" height="14" transform="rotate(0,460,250)"/><rect x="453" y="257" width="14" height="14" transform="rotate(0,460,264)"/><rect x="453" y="271" width="14" height="14" transform="rotate(0,460,278)"/><rect x="453" y="285" width="14" height="14" transform="rotate(0,460,292)"/><rect x="453" y="299" width="14" height="14" transform="rotate(0,460,306)"/><rect x="453" y="327" width="14" height="14" transform="rotate(0,460,334)"/><rect x="453" y="355" width="14" height="14" transform="rotate(0,460,362)"/><rect x="453" y="397" width="14" height="14" transform="rotate(0,460,404)"/><rect x="453" y="411" width="14" height="14" transform="rotate(0,460,418)"/><rect x="467" y="145" width="14" height="14" transform="rotate(0,474,152)"/><rect x="467" y="187" width="14" height="14" transform="rotate(0,474,194)"/><rect x="467" y="229" width="14" height="14" transform="rotate(0,474,236)"/><rect x="467" y="243" width="14" height="14" transform="rotate(0,474,250)"/><rect x="467" y="257" width="14" height="14" transform="rotate(0,474,264)"/><rect x="467" y="299" width="14" height="14" transform="rotate(0,474,306)"/><rect x="467" y="355" width="14" height="14" transform="rotate(0,474,362)"/><rect x="467" y="397" width="14" height="14" transform="rotate(0,474,404)"/><rect x="467" y="411" width="14" height="14" transform="rotate(0,474,418)"/><rect x="467" y="425" width="14" height="14" transform="rotate(0,474,432)"/><rect x="467" y="467" width="14" height="14" transform="rotate(0,474,474)"/></clipPath><clipPath id="clip-path-corners-square-color-0-0"><path clip-rule="evenodd" d="M 19 19v 98h 98v -98zM 33 33h 70v 70h -70z" transform="rotate(0,68,68)"/></clipPath><clipPath id="clip-path-corners-dot-color-0-0"><rect x="47" y="47" width="42" height="42" transform="rotate(0,68,68)"/></clipPath><clipPath id="clip-path-corners-square-color-1-0"><path clip-rule="evenodd" d="M 383 19v 98h 98v -98zM 397 33h 70v 70h -70z" transform="rotate(90,432,68)"/></clipPath><clipPath id="clip-path-corners-dot-color-1-0"><rect x="411" y="47" width="42" height="42" transform="rotate(90,432,68)"/></clipPath><clipPath id="clip-path-corners-square-color-0-1"><path clip-rule="evenodd" d="M 19 383v 98h 98v -98zM 33 397h 70v 70h -70z" transform="rotate(-90,68,432)"/></clipPath><clipPath id="clip-path-corners-dot-color-0-1"><rect x="47" y="411" width="42" height="42" transform="rotate(-90,68,432)"/></clipPath></defs><rect x="0" y="0" height="500" width="500" clip-path="url('#clip-path-background-color')" fill="#fff"/><rect x="0" y="0" height="500" width="500" clip-path="url('#clip-path-dot-color')" fill="#000000"/><rect x="19" y="19" height="98" width="98" clip-path="url('#clip-path-corners-square-color-0-0')" fill="#000000"/><rect x="47" y="47" height="42" width="42" clip-path="url('#clip-path-corners-dot-color-0-0')" fill="#000000"/><rect x="383" y="19" height="98" width="98" clip-path="url('#clip-path-corners-square-color-1-0')" fill="#000000"/><rect x="411" y="47" height="42" width="42" clip-path="url('#clip-path-corners-dot-color-1-0')" fill="#000000"/><rect x="19" y="383" height="98" width="98" clip-path="url('#clip-path-corners-square-color-0-1')" fill="#000000"/><rect x="47" y="411" height="42" width="42" clip-path="url('#clip-path-corners-dot-color-0-1')" fill="#000000"/></svg>